{
.appVersion = "3151";
.formatVersion = 3;
customParameters = (
{
name = vendorID;
value = COMM;
},
{
name = panose;
value = (
2,
13,
10,
4,
3,
5,
2,
5,
2,
3
);
},
{
name = unicodeRanges;
value = (
0,
1,
2
);
},
{
name = codePageRanges;
value = (
"1252",
"1250",
"1254",
"1257",
"bit 29"
);
},
{
name = fsType;
value = (
2
);
},
{
name = glyphOrder;
value = (
.notdef,
Eth,
eth,
Lslash,
lslash,
Scaron,
scaron,
Yacute,
yacute,
Thorn,
thorn,
Zcaron,
zcaron,
onehalf,
onequarter,
onesuperior,
threequarters,
threesuperior,
twosuperior,
brokenbar,
minus,
multiply,
space,
exclam,
quotedbl,
numbersign,
dollar,
percent,
ampersand,
quotesingle,
parenleft,
parenright,
asterisk,
plus,
comma,
hyphen,
period,
slash,
zero,
one,
two,
three,
four,
five,
six,
seven,
eight,
nine,
colon,
semicolon,
less,
equal,
greater,
question,
at,
A,
B,
C,
D,
E,
F,
G,
H,
I,
J,
K,
L,
M,
N,
O,
P,
Q,
R,
S,
T,
U,
V,
W,
X,
Y,
Z,
bracketleft,
backslash,
bracketright,
asciicircum,
underscore,
grave,
a,
b,
c,
d,
e,
f,
g,
h,
i,
j,
k,
l,
m,
n,
o,
p,
q,
r,
s,
t,
u,
v,
w,
x,
y,
z,
braceleft,
bar,
braceright,
asciitilde,
Adieresis,
Aring,
Ccedilla,
Eacute,
Ntilde,
Odieresis,
Udieresis,
aacute,
agrave,
acircumflex,
adieresis,
atilde,
aring,
ccedilla,
eacute,
egrave,
ecircumflex,
edieresis,
iacute,
igrave,
icircumflex,
idieresis,
ntilde,
oacute,
ograve,
ocircumflex,
odieresis,
otilde,
uacute,
ugrave,
ucircumflex,
udieresis,
dagger,
degree,
cent,
sterling,
section,
bullet,
paragraph,
germandbls,
registered,
copyright,
trademark,
acute,
dieresis,
notequal,
AE,
Oslash,
infinity,
plusminus,
lessequal,
greaterequal,
yen,
mu,
partialdiff,
summation,
product,
pi,
integral,
ordfeminine,
ordmasculine,
Omega,
ae,
oslash,
questiondown,
exclamdown,
logicalnot,
radical,
florin,
approxequal,
Delta,
guillemotleft,
guillemotright,
ellipsis,
uni00A0,
Agrave,
Atilde,
Otilde,
OE,
oe,
endash,
emdash,
quotedblleft,
quotedblright,
quoteleft,
quoteright,
divide,
lozenge,
ydieresis,
Ydieresis,
fraction,
Euro,
guilsinglleft,

glyphs = (
{
glyphname = zero;
kernLeft = zero;
kernRight = zero;
lastChange = "2023-04-13 20:13:12 +0000";
layers = (
{
hints = (
{
horizontal = 1;
place = (-16, 148);
place = (-16, 148);
type = Stem;
},
{
horizontal = 1;
place = (553, 146);
place = (553, 146);
type = Stem;
},
{
place = (17, 205);
place = (17, 205);
type = Stem;
},
{
place = (452, 205);
place = (452, 205);
type = Stem;
}
);
layerId = m01;
shapes = (
{
closed = 1;
nodes = (
(151,699,o),
(17,558,o),
(17,341,cs),
(17,123,o),
(155,-16,o),
(336,-16,cs),
(521,-16,o),
(657,123,o),
(657,341,cs),
(657,558,o),
(528,699,o),
(336,699,cs)
);
},
{
closed = 1;
nodes = (
(420,553,o),
(452,463,o),
(452,341,cs),
(452,218,o),
(420,132,o),
(337,132,cs),
(254,132,o),
(222,218,o),
(222,341,cs),
(222,463,o),
(254,553,o),
(337,553,cs)
);
},
{
closed = 1;
nodes = (
(0,-182,l),
(674,-182,l),
(674,818,l),
(0,818,l)
);
},
{
closed = 1;
nodes = (
(773,818,l),
(578,-182,l),
(-85,-182,l),
(109,818,l)
);
}
);
width = 674;
}
);
note = zero;
unicode = 48;
},
{
glyphname = one;
kernLeft = one;
lastChange = "2023-04-13 19:48:35 +0000";
layers = (
{
hints = (
{
horizontal = 1;
place = (0, 21);
target = up;
type = BottomGhost;
},
{
horizontal = 1;
place = (398, 137);
place = (398, 137);
type = Stem;
},
{
horizontal = 1;
place = (691, -20);
target = down;
type = TopGhost;
},
{
place = (164, 200);
place = (164, 200);
type = Stem;
}
);
layerId = m01;
shapes = (
{
closed = 1;
nodes = (
(195,594,o),
(123,539,o),
(24,535,c),
(24,398,l),
(71,398,o),
(117,398,o),
(164,398,c),
(164,0,l),
(364,0,l),
(364,691,l),
(215,691,l)
);
},
{
closed = 1;
nodes = (
(0,-182,l),
(420,-182,l),
(420,818,l),
(0,818,l)
);
}
);
width = 420;
}
);
note = one;
unicode = 49;
},
{
glyphname = two;
kernLeft = two;
kernRight = two;
lastChange = "2023-04-04 06:39:52 +0000";
layers = (
{
hints = (
{
horizontal = 1;
place = (0, 165);
place = (0, 165);
type = Stem;
},
{
horizontal = 1;
place = (542, 157);
place = (542, 157);
type = Stem;
},
{
place = (28, 188);
place = (28, 188);
type = Stem;
},
{
place = (396, 197);
place = (396, 197);
type = Stem;
}
);
layerId = m01;
shapes = (
{
closed = 1;
nodes = (
(216,418,l),
(216,491,o),
(241,542,o),
(314,542,cs),
(368,542,o),
(396,514,o),
(396,471,cs),
(396,429,o),
(373,407,o),
(283,343,cs),
(149,248,o),
(17,190,o),
(17,0,c),
(589,0,l),
(589,165,l),
(309,165,l),
(360,208,o),
(418,240,o),
(472,278,cs),
(545,330,o),
(593,375,o),
(593,479,cs),
(593,604,o),
(500,699,o),
(318,699,cs),
(127,699,o),
(28,609,o),
(28,418,c)
);
}
);
width = 614;
}
);
note = two;
unicode = 50;
},
{
glyphname = three;
kernLeft = three;
kernRight = three;
lastChange = "2023-04-04 17:10:31 +0000";
layers = (
{
hints = (
{
horizontal = 1;
place = (-17, 149);
place = (-17, 149);
type = Stem;
},
{
horizontal = 1;
place = (285, 130);
place = (285, 130);
type = Stem;
},
{
horizontal = 1;
place = (551, 148);
place = (551, 148);
type = Stem;
},
{
place = (411, 200);
place = (411, 200);
type = Stem;
},
{
place = (399, 194);
place = (399, 194);
type = Stem;
}
);
layerId = m01;
shapes = (
{
closed = 1;
nodes = (
(217,463,l),
(222,509,o),
(247,551,o),
(316,551,cs),
(369,551,o),
(399,525,o),
(399,485,cs),
(399,438,o),
(360,415,o),
(297,415,cs),
(263,415,l),
(263,285,l),
(303,285,ls),
(368,285,o),
(411,264,o),
(411,210,cs),
(411,167,o),
(380,132,o),
(317,132,cs),
(239,132,o),
(203,177,o),
(201,240,c),
(12,240,l),
(12,60,o),
(138,-17,o),
(326,-17,cs),
(473,-17,o),
(611,49,o),
(611,201,cs),
(611,290,o),
(564,340,o),
(501,366,c),
(501,368,l),
(556,394,o),
(593,434,o),
(593,498,cs),
(593,626,o),
(479,699,o),
(319,699,cs),
(138,699,o),
(33,599,o),
(33,463,c)
);
}
);
width = 630;
}
);
note = three;
unicode = 51;
},
{
glyphname = four;
kernLeft = four;
kernRight = four;
lastChange = "2023-04-04 01:07:04 +0000";
layers = (
{
hints = (
{
horizontal = 1;
place = (0, 21);
target = up;
type = BottomGhost;
},
{
horizontal = 1;
place = (154, 147);
place = (154, 147);
type = Stem;
},
{
horizontal = 1;
place = (691, -20);
target = down;
type = TopGhost;
},
{
place = (340, 194);
place = (340, 194);
type = Stem;
}
);
layerId = m01;
shapes = (
{
closed = 1;
nodes = (
(18,154,l),
(340,154,l),
(340,0,l),
(534,0,l),
(534,154,l),
(628,154,l),
(628,301,l),
(534,301,l),
(534,691,l),
(341,691,l),
(18,317,l)
);
},
{
closed = 1;
nodes = (
(340,506,l),
(340,301,l),
(162,301,l)
);
}
);
width = 644;
}
);
note = four;
unicode = 52;
},
{
glyphname = five;
kernLeft = five;
kernRight = five;
lastChange = "2023-04-04 01:36:39 +0000";
layers = (
{
hints = (
{
horizontal = 1;
place = (-17, 154);
place = (-17, 154);
type = Stem;
},
{
horizontal = 1;
place = (341, 130);
place = (341, 130);
type = Stem;
},
{
horizontal = 1;
place = (528, 157);
place = (528, 157);
type = Stem;
},
{
place = (407, 199);
place = (407, 199);
type = Stem;
},
{
horizontal = 1;
place = (300, 132);
place = (300, 132);
type = Stem;
}
);
layerId = m01;
shapes = (
{
closed = 1;
nodes = (
(114,685,l),
(41,300,l),
(226,300,l),
(242,324,o),
(274,341,o),
(310,341,cs),
(370,341,o),
(407,301,o),
(407,242,cs),
(407,177,o),
(370,137,o),
(311,137,cs),
(261,137,o),
(219,163,o),
(208,211,c),
(13,211,l),
(31,52,o),
(155,-17,o),
(316,-17,cs),
(495,-17,o),
(606,79,o),
(606,240,cs),
(606,381,o),
(507,471,o),
(365,471,cs),
(304,471,o),
(261,451,o),
(241,432,c),
(239,432,l),
(261,528,l),
(560,528,l),
(560,685,l)
);
}
);
width = 627;
}
);
note = five;
unicode = 53;
},
{
glyphname = six;
kernLeft = six;
kernRight = six;
lastChange = "2023-04-04 01:38:51 +0000";
layers = (
{
hints = (
{
horizontal = 1;
place = (-16, 143);
place = (-16, 143);
type = Stem;
},
{
horizontal = 1;
place = (333, 139);
place = (333, 139);
type = Stem;
},
{
horizontal = 1;
place = (563, 136);
place = (563, 136);
type = Stem;
},
{
place = (18, 205);
place = (18, 205);
type = Stem;
},
{
place = (435, 190);
place = (435, 190);
type = Stem;
},
{
horizontal = 1;
place = (509, 190);
place = (509, 190);
type = Stem;
}
);
layerId = m01;
shapes = (
{
closed = 1;
nodes = (
(582,629,o),
(485,699,o),
(337,699,cs),
(132,699,o),
(18,558,o),
(18,341,cs),
(18,119,o),
(130,-16,o),
(336,-16,cs),
(507,-16,o),
(625,80,o),
(625,230,cs),
(625,379,o),
(507,472,o),
(370,472,cs),
(301,472,o),
(254,449,o),
(216,413,c),
(214,413,l),
(224,511,o),
(269,563,o),
(337,563,cs),
(388,563,o),
(407,536,o),
(416,509,c),
(608,509,l)
);
},
{
closed = 1;
nodes = (
(393,333,o),
(435,289,o),
(435,230,cs),
(435,171,o),
(393,127,o),
(329,127,cs),
(266,127,o),
(223,171,o),
(223,230,cs),
(223,289,o),
(266,333,o),
(329,333,cs)
);
}
);
width = 641;
}
);
note = six;
unicode = 54;
},
{
glyphname = seven;
kernLeft = seven;
kernRight = seven;
lastChange = "2023-04-04 01:42:46 +0000";
layers = (
{
hints = (
{
horizontal = 1;
place = (0, 21);
target = up;
type = BottomGhost;
},
{
horizontal = 1;
place = (515, 170);
place = (515, 170);
type = Stem;
},
{
place = (111, 205);
place = (111, 205);
type = Stem;
},
{
horizontal = 1;
place = (537, 148);
place = (537, 148);
type = Stem;
}
);
layerId = m01;
shapes = (
{
closed = 1;
nodes = (
(15,515,l),
(335,515,l),
(244,423,o),
(121,246,o),
(111,0,c),
(316,0,l),
(320,221,o),
(424,420,o),
(541,537,c),
(541,685,l),
(15,685,l)
);
}
);
width = 559;
}
);
note = seven;
unicode = 55;
},
{
glyphname = eight;
kernLeft = eight;
kernRight = eight;
lastChange = "2023-04-04 18:15:15 +0000";
layers = (
{
hints = (
{
horizontal = 1;
place = (-17, 140);
place = (-17, 140);
type = Stem;
},
{
horizontal = 1;
place = (298, 119);
place = (298, 119);
type = Stem;
},
{
horizontal = 1;
place = (570, 129);
place = (570, 129);
type = Stem;
},
{
place = (14, 194);
place = (14, 194);
type = Stem;
},
{
place = (412, 195);
place = (412, 195);
type = Stem;
},
{
place = (41, 179);
place = (41, 179);
type = Stem;
},
{
place = (399, 179);
place = (399, 179);
type = Stem;
}
);
layerId = m01;
shapes = (
{
closed = 1;
nodes = (
(140,699,o),
(41,611,o),
(41,499,cs),
(41,439,o),
(69,389,o),
(127,358,c),
(127,355,l),
(54,321,o),
(14,264,o),
(14,193,cs),
(14,71,o),
(125,-17,o),
(309,-17,cs),
(493,-17,o),
(607,69,o),
(607,196,cs),
(607,270,o),
(569,331,o),
(494,362,c),
(494,365,l),
(547,397,o),
(578,447,o),
(578,503,cs),
(578,620,o),
(479,699,o),
(309,699,cs)
);
},
{
closed = 1;
nodes = (
(370,298,o),
(412,263,o),
(412,210,cs),
(412,157,o),
(370,123,o),
(311,123,cs),
(252,123,o),
(208,157,o),
(208,210,cs),
(208,263,o),
(252,298,o),
(311,298,cs)
);
},
{
closed = 1;
nodes = (
(364,570,o),
(399,537,o),
(399,493,cs),
(399,449,o),
(364,417,o),
(309,417,cs),
(254,417,o),
(220,449,o),
(220,493,cs),
(220,537,o),
(254,570,o),
(309,570,cs)
);
}
);
width = 621;
}
);
note = eight;
unicode = 56;
},
{
glyphname = nine;
kernLeft = nine;
kernRight = nine;
lastChange = "2023-04-04 02:03:44 +0000";
layers = (
{
hints = (
{
horizontal = 1;
place = (-16, 136);
place = (-16, 136);
type = Stem;
},
{
horizontal = 1;
place = (207, 139);
place = (207, 139);
type = Stem;
},
{
horizontal = 1;
place = (556, 143);
place = (556, 143);
type = Stem;
},
{
place = (16, 190);
place = (16, 190);
type = Stem;
},
{
place = (418, 200);
place = (418, 200);
type = Stem;
}
);
layerId = m01;
shapes = (
{
closed = 1;
nodes = (
(338,207,o),
(385,233,o),
(421,266,c),
(416,167,o),
(373,120,o),
(306,120,cs),
(254,120,o),
(228,149,o),
(218,176,c),
(30,176,l),
(53,59,o),
(158,-16,o),
(310,-16,cs),
(527,-16,o),
(618,135,o),
(618,342,cs),
(618,558,o),
(516,699,o),
(310,699,cs),
(138,699,o),
(16,601,o),
(16,451,cs),
(16,302,o),
(134,207,o),
(271,207,cs)
);
},
{
closed = 1;
nodes = (
(248,346,o),
(206,392,o),
(206,451,cs),
(206,510,o),
(248,556,o),
(312,556,cs),
(375,556,o),
(418,510,o),
(418,451,cs),
(418,392,o),
(375,346,o),
(312,346,cs)
);
}
);
width = 636;
}
);
note = nine;
unicode = 57;
},
{
glyphname = A;
kernLeft = A;
kernRight = A;
lastChange = "2023-04-04 19:54:41 +0000";
layers = (
{
hints = (
{
horizontal = 1;
place = (0, 21);
target = up;
type = BottomGhost;
},
{
horizontal = 1;
place = (105, 144);
place = (105, 144);
type = Stem;
},
{
horizontal = 1;
place = (715, -20);
target = down;
type = TopGhost;
},
{
place = (-4, 742);
place = (-4, 742);
type = Stem;
}
);
layerId = m01;
shapes = (
{
closed = 1;
nodes = (
(-4,0,l),
(204,0,l),
(239,105,l),
(481,105,l),
(516,0,l),
(738,0,l),
(473,715,l),
(260,715,l)
);
},
{
closed = 1;
nodes = (
(434,249,l),
(286,249,l),
(361,481,l)
);
}
);
width = 734;
}
);
note = A;
unicode = 65;
},
{
glyphname = B;
lastChange = "2023-04-04 19:54:47 +0000";
layers = (
{
hints = (
{
horizontal = 1;
place = (0, 164);
place = (0, 164);
type = Stem;
},
{
horizontal = 1;
place = (303, 134);
place = (303, 134);
type = Stem;
},
{
horizontal = 1;
place = (553, 162);
place = (553, 162);
type = Stem;
},
{
place = (43, 205);
place = (43, 205);
type = Stem;
},
{
place = (473, 202);
place = (473, 202);
type = Stem;
},
{
place = (445, 196);
place = (445, 196);
type = Stem;
}
);
layerId = m01;
shapes = (
{
closed = 1;
nodes = (
(43,0,l),
(420,0,ls),
(569,0,o),
(675,70,o),
(675,216,cs),
(675,297,o),
(630,364,o),
(552,389,c),
(612,415,o),
(641,460,o),
(641,528,cs),
(641,646,o),
(546,715,o),
(413,715,cs),
(43,715,l)
);
},
{
closed = 1;
nodes = (
(377,553,ls),
(417,553,o),
(445,531,o),
(445,494,cs),
(445,456,o),
(418,437,o),
(378,437,cs),
(248,437,l),
(248,553,l)
);
},
{
closed = 1;
nodes = (
(396,303,ls),
(439,303,o),
(473,280,o),
(473,234,cs),
(473,191,o),
(442,164,o),
(397,164,cs),
(248,164,l),
(248,303,l)
);
}
);
width = 685;
}
);
note = B;
unicode = 66;
},
{
glyphname = C;
kernLeft = C;
kernRight = C;
lastChange = "2023-04-04 02:18:04 +0000";
layers = (
{
hints = (
{
horizontal = 1;
place = (-17, 171);
place = (-17, 171);
type = Stem;
},
{
horizontal = 1;
place = (556, 172);
place = (556, 172);
type = Stem;
},
{
place = (15, 212);
place = (15, 212);
type = Stem;
}
);
layerId = m01;
shapes = (
{
closed = 1;
nodes = (
(686,622,o),
(556,728,o),
(377,728,cs),
(162,728,o),
(15,569,o),
(15,355,cs),
(15,141,o),
(159,-17,o),
(377,-17,cs),
(615,-17,o),
(702,145,o),
(711,266,c),
(500,266,l),
(493,202,o),
(449,154,o),
(376,154,cs),
(283,154,o),
(227,238,o),
(227,355,cs),
(227,472,o),
(275,556,o),
(374,556,cs),
(442,556,o),
(489,506,o),
(494,450,c),
(703,450,l)
);
}
);
width = 719;
}
);
note = C;
unicode = 67;
},
{
glyphname = D;
kernRight = Eth;
lastChange = "2023-04-04 19:54:51 +0000";
layers = (
{
hints = (
{
horizontal = 1;
place = (0, 173);
place = (0, 173);
type = Stem;
},
{
horizontal = 1;
place = (542, 173);
place = (542, 173);
type = Stem;
},
{
place = (43, 209);
place = (43, 209);
type = Stem;
},
{
place = (510, 212);
place = (510, 212);
type = Stem;
}
);
layerId = m01;
shapes = (
{
closed = 1;
nodes = (
(43,0,l),
(364,0,ls),
(586,0,o),
(722,128,o),
(722,356,cs),
(722,583,o),
(579,715,o),
(373,715,cs),
(43,715,l)
);
},
{
closed = 1;
nodes = (
(347,542,ls),
(447,542,o),
(510,474,o),
(510,356,cs),
(510,235,o),
(443,173,o),
(347,173,cs),
(252,173,l),
(252,542,l)
);
}
);
width = 737;
}
);
note = D;
unicode = 68;
},
{
glyphname = E;
kernRight = E;
layers = (
{
hints = (
{
horizontal = 1;
place = (0, 179);
place = (0, 179);
type = Stem;
},
{
horizontal = 1;
place = (291, 157);
place = (291, 157);
type = Stem;
},
{
horizontal = 1;
place = (545, 170);
place = (545, 170);
type = Stem;
},
{
place = (43, 209);
place = (43, 209);
type = Stem;
}
);
layerId = m01;
shapes = (
{
closed = 1;
nodes = (
(43,0,l),
(610,0,l),
(610,179,l),
(252,179,l),
(252,291,l),
(543,291,l),
(543,448,l),
(252,448,l),
(252,545,l),
(600,545,l),
(600,715,l),
(43,715,l)
);
}
);
width = 637;
}
);
note = E;
unicode = 69;
},
{
glyphname = F;
kernRight = F;
layers = (
{
hints = (
{
horizontal = 1;
place = (0, 21);
target = up;
type = BottomGhost;
},
{
horizontal = 1;
place = (260, 162);
place = (260, 162);
type = Stem;
},
{
horizontal = 1;
place = (539, 176);
place = (539, 176);
type = Stem;
},
{
place = (43, 209);
place = (43, 209);
type = Stem;
}
);
layerId = m01;
shapes = (
{
closed = 1;
nodes = (
(43,0,l),
(252,0,l),
(252,260,l),
(535,260,l),
(535,422,l),
(252,422,l),
(252,539,l),
(594,539,l),
(594,715,l),
(43,715,l)
);
}
);
width = 610;
}
);
note = F;
unicode = 70;
},
{
glyphname = G;
kernLeft = C;
kernRight = G;
lastChange = "2023-04-04 02:28:14 +0000";
layers = (
{
hints = (
{
horizontal = 1;
place = (0, 21);
target = up;
type = BottomGhost;
},
{
horizontal = 1;
place = (240, 148);
place = (240, 148);
type = Stem;
},
{
horizontal = 1;
place = (556, 172);
place = (556, 172);
type = Stem;
},
{
place = (15, 212);
place = (15, 212);
type = Stem;
},
{
place = (417, 295);
place = (417, 295);
type = Stem;
},
{
horizontal = 1;
place = (-17, 168);
place = (-17, 168);
type = Stem;
}
);
layerId = m01;
shapes = (
{
closed = 1;
nodes = (
(675,631,o),
(557,728,o),
(370,728,cs),
(149,728,o),
(15,566,o),
(15,355,cs),
(15,144,o),
(138,-17,o),
(350,-17,cs),
(437,-17,o),
(510,11,o),
(556,78,c),
(573,0,l),
(712,0,l),
(712,388,l),
(417,388,l),
(417,240,l),
(512,240,l),
(512,240,l),
(499,192,o),
(462,151,o),
(386,151,cs),
(285,151,o),
(227,238,o),
(227,355,cs),
(227,472,o),
(278,556,o),
(378,556,cs),
(442,556,o),
(485,518,o),
(496,472,c),
(698,472,l)
);
}
);
width = 740;
}
);
note = G;
unicode = 71;
},
{
glyphname = H;
kernRight = H;
layers = (
{
hints = (
{
horizontal = 1;
place = (0, 21);
target = up;
type = BottomGhost;
},
{
horizontal = 1;
place = (280, 173);
place = (280, 173);
type = Stem;
},
{
horizontal = 1;
place = (715, -20);
target = down;
type = TopGhost;
},
{
place = (43, 209);
place = (43, 209);
type = Stem;
},
{
place = (472, 209);
place = (472, 209);
type = Stem;
}
);
layerId = m01;
shapes = (
{
closed = 1;
nodes = (
(43,0,l),
(252,0,l),
(252,280,l),
(472,280,l),
(472,0,l),
(681,0,l),
(681,715,l),
(472,715,l),
(472,453,l),
(252,453,l),
(252,715,l),
(43,715,l)
);
}
);
width = 724;
}
);
note = H;
unicode = 72;
},
{
glyphname = I;
kernRight = H;
layers = (
{
hints = (
{
horizontal = 1;
place = (0, 21);
target = up;
type = BottomGhost;
},
{
horizontal = 1;
place = (715, -20);
target = down;
type = TopGhost;
},
{
place = (43, 209);
place = (43, 209);
type = Stem;
}
);
layerId = m01;
shapes = (
{
closed = 1;
nodes = (
(43,0,l),
(252,0,l),
(252,715,l),
(43,715,l)
);
}
);
width = 295;
}
);
note = I;
unicode = 73;
},
{
glyphname = J;
kernLeft = J;
kernRight = J;
lastChange = "2023-04-04 02:30:45 +0000";
layers = (
{
hints = (
{
horizontal = 1;
place = (-13, 174);
place = (-13, 174);
type = Stem;
},
{
horizontal = 1;
place = (715, -20);
target = down;
type = TopGhost;
},
{
place = (8, 193);
place = (8, 193);
type = Stem;
},
{
place = (327, 209);
place = (327, 209);
type = Stem;
}
);
layerId = m01;
shapes = (
{
closed = 1;
nodes = (
(327,231,ls),
(327,190,o),
(310,161,o),
(265,161,cs),
(225,161,o),
(201,184,o),
(201,233,cs),
(201,290,l),
(8,290,l),
(8,235,ls),
(8,102,o),
(85,-13,o),
(274,-13,cs),
(429,-13,o),
(536,61,o),
(536,224,cs),
(536,715,l),
(327,715,l)
);
}
);
width = 574;
}
);
note = J;
unicode = 74;
},
{
glyphname = K;
kernRight = K;
layers = (
{
hints = (
{
horizontal = 1;
place = (0, 21);
target = up;
type = BottomGhost;
},
{
horizontal = 1;
place = (715, -20);
target = down;
type = TopGhost;
},
{
place = (43, 209);
place = (43, 209);
type = Stem;
}
);
layerId = m01;
shapes = (
{
closed = 1;
nodes = (
(43,0,l),
(252,0,l),
(252,231,l),
(298,283,l),
(480,0,l),
(723,0,l),
(441,427,l),
(708,715,l),
(468,715,l),
(252,481,l),
(252,715,l),
(43,715,l)
);
}
);
width = 719;
}
);
note = K;
unicode = 75;
},
{
glyphname = L;
kernRight = L;
layers = (
{
hints = (
{
horizontal = 1;
place = (0, 179);
place = (0, 179);
type = Stem;
},
{
horizontal = 1;
place = (715, -20);
target = down;
type = TopGhost;
},
{
place = (43, 209);
place = (43, 209);
type = Stem;
}
);
layerId = m01;
shapes = (
{
closed = 1;
nodes = (
(43,0,l),
(558,0,l),
(558,179,l),
(252,179,l),
(252,715,l),
(43,715,l)
);
}
);
width = 570;
}
);
note = L;
unicode = 76;
},
{
glyphname = M;
kernRight = H;
lastChange = "2023-04-04 02:45:50 +0000";
layers = (
{
hints = (
{
horizontal = 1;
place = (0, 21);
target = up;
type = BottomGhost;
},
{
horizontal = 1;
place = (715, -20);
target = down;
type = TopGhost;
},
{
place = (43, 184);
place = (43, 184);
type = Stem;
},
{
place = (622, 189);
place = (622, 189);
type = Stem;
}
);
layerId = m01;
shapes = (
{
closed = 1;
nodes = (
(43,0,l),
(227,0,l),
(227,448,l),
(229,448,l),
(348,0,l),
(501,0,l),
(621,448,l),
(622,448,l),
(622,0,l),
(811,0,l),
(811,715,l),
(537,715,l),
(427,315,l),
(425,315,l),
(315,715,l),
(43,715,l)
);
}
);
width = 854;
}
);
note = M;
unicode = 77;
},
{
glyphname = N;
kernRight = H;
lastChange = "2023-04-04 02:50:00 +0000";
layers = (
{
hints = (
{
horizontal = 1;
place = (0, 21);
target = up;
type = BottomGhost;
},
{
horizontal = 1;
place = (715, -20);
target = down;
type = TopGhost;
},
{
place = (43, 202);
place = (43, 202);
type = Stem;
},
{
place = (488, 202);
place = (488, 202);
type = Stem;
}
);
layerId = m01;
shapes = (
{
closed = 1;
nodes = (
(43,0,l),
(245,0,l),
(245,405,l),
(246,405,l),
(474,0,l),
(690,0,l),
(690,715,l),
(488,715,l),
(488,313,l),
(487,313,l),
(252,715,l),
(43,715,l)
);
}
);
width = 733;
}
);
note = N;
unicode = 78;
},
{
glyphname = O;
kernLeft = C;
kernRight = O;
lastChange = "2023-04-04 19:54:55 +0000";
layers = (
{
hints = (
{
horizontal = 1;
place = (-17, 167);
place = (-17, 167);
type = Stem;
},
{
horizontal = 1;
place = (561, 167);
place = (561, 167);
type = Stem;
},
{
place = (15, 212);
place = (15, 212);
type = Stem;
},
{
place = (529, 212);
place = (529, 212);
type = Stem;
}
);
layerId = m01;
shapes = (
{
closed = 1;
nodes = (
(155,728,o),
(15,569,o),
(15,355,cs),
(15,141,o),
(155,-17,o),
(377,-17,cs),
(599,-17,o),
(741,141,o),
(741,355,cs),
(741,569,o),
(599,728,o),
(377,728,cs)
);
},
{
closed = 1;
nodes = (
(478,561,o),
(529,472,o),
(529,355,cs),
(529,238,o),
(478,150,o),
(378,150,cs),
(278,150,o),
(227,238,o),
(227,355,cs),
(227,472,o),
(278,561,o),
(378,561,cs)
);
}
);
width = 756;
}
);
note = O;
unicode = 79;
},
{
glyphname = P;
kernRight = P;
lastChange = "2023-04-04 19:54:58 +0000";
layers = (
{
hints = (
{
horizontal = 1;
place = (0, 21);
target = up;
type = BottomGhost;
},
{
horizontal = 1;
place = (218, 162);
place = (218, 162);
type = Stem;
},
{
horizontal = 1;
place = (542, 173);
place = (542, 173);
type = Stem;
},
{
place = (43, 209);
place = (43, 209);
type = Stem;
},
{
place = (448, 208);
place = (448, 208);
type = Stem;
}
);
layerId = m01;
shapes = (
{
closed = 1;
nodes = (
(43,0,l),
(252,0,l),
(252,218,l),
(410,218,ls),
(554,218,o),
(656,322,o),
(656,460,cs),
(656,621,o),
(542,715,o),
(372,715,cs),
(43,715,l)
);
},
{
closed = 1;
nodes = (
(363,542,ls),
(417,542,o),
(448,511,o),
(448,463,cs),
(448,414,o),
(416,380,o),
(365,380,cs),
(252,380,l),
(252,542,l)
);
}
);
width = 666;
}
);
note = P;
unicode = 80;
},
{
glyphname = Q;
kernLeft = C;
kernRight = Q;
lastChange = "2023-04-04 19:55:00 +0000";
layers = (
{
hints = (
{
horizontal = 1;
place = (-17, 167);
place = (-17, 167);
type = Stem;
},
{
horizontal = 1;
place = (561, 167);
place = (561, 167);
type = Stem;
},
{
place = (15, 212);
place = (15, 212);
type = Stem;
},
{
place = (529, 212);
place = (529, 212);
type = Stem;
}
);
layerId = m01;
shapes = (
{
closed = 1;
nodes = (
(155,728,o),
(15,569,o),
(15,355,cs),
(15,141,o),
(155,-17,o),
(377,-17,cs),
(444,-17,o),
(503,-3,o),
(554,23,c),
(650,-73,l),
(740,18,l),
(655,103,l),
(710,168,o),
(741,255,o),
(741,355,cs),
(741,569,o),
(599,728,o),
(377,728,cs)
);
},
{
closed = 1;
nodes = (
(478,561,o),
(529,472,o),
(529,355,cs),
(529,314,o),
(523,278,o),
(511,247,c),
(444,314,l),
(354,223,l),
(421,156,l),
(408,152,o),
(393,150,o),
(378,150,cs),
(278,150,o),
(227,238,o),
(227,355,cs),
(227,472,o),
(278,561,o),
(378,561,cs)
);
}
);
width = 756;
}
);
note = Q;
unicode = 81;
},
{
glyphname = R;
kernRight = R;
lastChange = "2023-04-04 19:59:19 +0000";
layers = (
{
hints = (
{
horizontal = 1;
place = (0, 11);
place = (0, 11);
type = Stem;
},
{
horizontal = 1;
place = (249, 149);
place = (249, 149);
type = Stem;
},
{
horizontal = 1;
place = (551, 164);
place = (551, 164);
type = Stem;
},
{
place = (43, 209);
place = (43, 209);
type = Stem;
},
{
place = (457, 211);
place = (457, 211);
type = Stem;
}
);
layerId = m01;
shapes = (
{
closed = 1;
nodes = (
(43,0,l),
(252,0,l),
(252,249,l),
(349,249,ls),
(410,249,o),
(434,221,o),
(447,166,cs),
(456,127,o),
(457,80,o),
(460,45,cs),
(463,23,o),
(466,6,o),
(474,0,c),
(680,0,l),
(680,11,l),
(671,13,o),
(667,26,o),
(665,45,cs),
(661,84,o),
(664,149,o),
(651,207,cs),
(639,263,o),
(609,305,o),
(551,327,c),
(551,327,l),
(630,367,o),
(668,424,o),
(668,502,cs),
(668,648,o),
(544,715,o),
(398,715,cs),
(43,715,l)
);
},
{
closed = 1;
nodes = (
(367,551,ls),
(427,551,o),
(457,521,o),
(457,474,cs),
(457,424,o),
(424,398,o),
(364,398,cs),
(252,398,l),
(252,551,l)
);
}
);
width = 691;
}
);
note = R;
unicode = 82;
},
{
glyphname = S;
kernLeft = Scaron;
kernRight = Scaron;
lastChange = "2023-04-04 03:05:32 +0000";
layers = (
{
hints = (
{
horizontal = 1;
place = (-17, 161);
place = (-17, 161);
type = Stem;
},
{
horizontal = 1;
place = (574, 154);
place = (574, 154);
type = Stem;
},
{
place = (30, 206);
place = (30, 206);
type = Stem;
},
{
place = (431, 213);
place = (431, 213);
type = Stem;
}
);
layerId = m01;
shapes = (
{
closed = 1;
nodes = (
(609,666,o),
(473,728,o),
(325,728,cs),
(164,728,o),
(30,666,o),
(30,502,cs),
(30,350,o),
(175,309,o),
(295,279,cs),
(383,257,o),
(431,246,o),
(431,203,cs),
(431,160,o),
(381,144,o),
(340,144,cs),
(271,144,o),
(227,171,o),
(220,228,c),
(6,228,l),
(9,63,o),
(150,-17,o),
(336,-17,cs),
(505,-17,o),
(644,66,o),
(644,222,cs),
(644,374,o),
(524,421,o),
(404,450,cs),
(297,476,o),
(236,482,o),
(236,524,cs),
(236,553,o),
(268,574,o),
(314,574,cs),
(371,574,o),
(399,549,o),
(405,510,c),
(612,510,l)
);
}
);
width = 658;
}
);
note = S;
unicode = 83;
},
{
glyphname = T;
kernLeft = T;
kernRight = T;
layers = (
{
hints = (
{
horizontal = 1;
place = (0, 21);
target = up;
type = BottomGhost;
},
{
horizontal = 1;
place = (537, 178);
place = (537, 178);
type = Stem;
},
{
place = (217, 209);
place = (217, 209);
type = Stem;
}
);
layerId = m01;
shapes = (
{
closed = 1;
nodes = (
(15,537,l),
(217,537,l),
(217,0,l),
(426,0,l),
(426,537,l),
(631,537,l),
(631,715,l),
(15,715,l)
);
}
);
width = 646;
}
);
note = T;
unicode = 84;
},
{
glyphname = U;
kernLeft = U;
kernRight = U;
lastChange = "2023-04-04 03:10:20 +0000";
layers = (
{
hints = (
{
horizontal = 1;
place = (-13, 167);
place = (-13, 167);
type = Stem;
},
{
horizontal = 1;
place = (715, -20);
target = down;
type = TopGhost;
},
{
place = (38, 209);
place = (38, 209);
type = Stem;
},
{
place = (467, 209);
place = (467, 209);
type = Stem;
}
);
layerId = m01;
shapes = (
{
closed = 1;
nodes = (
(38,273,ls),
(38,94,o),
(142,-13,o),
(357,-13,cs),
(571,-13,o),
(676,97,o),
(676,273,cs),
(676,715,l),
(467,715,l),
(467,265,ls),
(467,200,o),
(431,154,o),
(360,154,cs),
(283,154,o),
(247,195,o),
(247,261,cs),
(247,715,l),
(38,715,l)
);
}
);
width = 714;
}
);
note = U;
unicode = 85;
},
{
glyphname = V;
kernLeft = V;
kernRight = V;
lastChange = "2023-04-04 03:10:26 +0000";
layers = (
{
hints = (
{
horizontal = 1;
place = (0, 21);
target = up;
type = BottomGhost;
},
{
horizontal = 1;
place = (715, -20);
target = down;
type = TopGhost;
},
{
place = (-5, 693);
place = (-5, 693);
type = Stem;
}
);
layerId = m01;
shapes = (
{
closed = 1;
nodes = (
(224,0,l),
(458,0,l),
(688,715,l),
(476,715,l),
(344,240,l),
(344,240,l),
(210,715,l),
(-5,715,l)
);
}
);
width = 683;
}
);
note = V;
unicode = 86;
},
{
glyphname = W;
kernLeft = W;
kernRight = W;
lastChange = "2023-04-04 04:30:11 +0000";
layers = (
{
hints = (
{
horizontal = 1;
place = (0, 21);
target = up;
type = BottomGhost;
},
{
horizontal = 1;
place = (715, -20);
target = down;
type = TopGhost;
},
{
place = (-5, 974);
place = (-5, 974);
type = Stem;
}
);
layerId = m01;
shapes = (
{
closed = 1;
nodes = (
(178,0,l),
(392,0,l),
(480,442,l),
(480,442,l),
(570,0,l),
(781,0,l),
(969,715,l),
(755,715,l),
(666,271,l),
(666,271,l),
(574,715,l),
(385,715,l),
(292,271,l),
(292,271,l),
(204,715,l),
(-5,715,l)
);
}
);
width = 964;
}
);
note = W;
unicode = 87;
},
{
glyphname = X;
kernLeft = X;
kernRight = X;
lastChange = "2023-04-04 04:43:05 +0000";
layers = (
{
hints = (
{
horizontal = 1;
place = (0, 21);
target = up;
type = BottomGhost;
},
{
horizontal = 1;
place = (524, -20);
target = down;
type = TopGhost;
},
{
horizontal = 1;
place = (715, -20);
target = down;
type = TopGhost;
},
{
place = (-2, 739);
place = (-2, 739);
type = Stem;
}
);
layerId = m01;
shapes = (
{
closed = 1;
nodes = (
(241,376,l),
(-2,0,l),
(233,0,l),
(364,223,l),
(364,223,l),
(488,0,l),
(737,0,l),
(499,378,l),
(714,715,l),
(487,715,l),
(373,524,l),
(373,524,l),
(261,715,l),
(20,715,l)
);
}
);
width = 735;
}
);
note = X;
unicode = 88;
},
{
glyphname = Y;
kernLeft = Yacute;
kernRight = Yacute;
lastChange = "2023-04-04 04:46:41 +0000";
layers = (
{
hints = (
{
horizontal = 1;
place = (0, 21);
target = up;
type = BottomGhost;
},
{
horizontal = 1;
place = (715, -20);
target = down;
type = TopGhost;
},
{
place = (243, 209);
place = (243, 209);
type = Stem;
}
);
layerId = m01;
shapes = (
{
closed = 1;
nodes = (
(243,251,l),
(243,0,l),
(452,0,l),
(452,251,l),
(698,715,l),
(476,715,l),
(350,441,l),
(350,441,l),
(225,715,l),
(-2,715,l)
);
},
{
closed = 0;
nodes = (
(809,381,l)
);
}
);
width = 696;
}
);
note = Y;
unicode = 89;
},
{
glyphname = Z;
kernLeft = Zcaron;
kernRight = Zcaron;
lastChange = "2023-04-04 04:54:42 +0000";
layers = (
{
hints = (
{
horizontal = 1;
place = (0, 179);
place = (0, 179);
type = Stem;
},
{
horizontal = 1;
place = (536, 179);
place = (536, 179);
type = Stem;
},
{
place = (24, 621);
place = (24, 621);
type = Stem;
}
);
layerId = m01;
shapes = (
{
closed = 1;
nodes = (
(50,536,l),
(348,537,l),
(348,537,l),
(24,172,l),
(24,0,l),
(645,0,l),
(645,179,l),
(288,178,l),
(288,178,l),
(626,558,l),
(626,715,l),
(50,715,l)
);
}
);
width = 669;
}
);
note = Z;
unicode = 90;
},
{
glyphname = a;
kernLeft = a;
kernRight = a;
lastChange = "2023-04-04 20:23:55 +0000";
layers = (
{
hints = (
{
horizontal = 1;
place = (0, 8);
place = (0, 8);
type = Stem;
},
{
horizontal = 1;
place = (403, 123);
place = (403, 123);
type = Stem;
},
{
place = (338, 183);
place = (338, 183);
type = Stem;
},
{
horizontal = 1;
place = (342, 184);
place = (342, 184);
type = Stem;
},
{
horizontal = 1;
place = (-13, 112);
place = (-13, 112);
type = Stem;
},
{
place = (11, 182);
place = (11, 182);
type = Stem;
}
);
layerId = m01;
shapes = (
{
closed = 1;
nodes = (
(212,342,l),
(217,379,o),
(238,403,o),
(279,403,cs),
(320,403,o),
(333,382,o),
(333,354,cs),
(333,322,o),
(304,309,o),
(196,297,cs),
(98,286,o),
(11,253,o),
(11,140,cs),
(11,40,o),
(83,-13,o),
(181,-13,cs),
(247,-13,o),
(301,9,o),
(335,56,c),
(337,56,l),
(339,42,ls),
(340,33,o),
(342,25,o),
(345,18,cs),
(348,11,o),
(351,5,o),
(354,0,c),
(540,0,l),
(540,8,l),
(532,13,o),
(527,21,o),
(525,33,cs),
(522,46,o),
(521,62,o),
(521,84,cs),
(521,339,ls),
(521,475,o),
(427,526,o),
(275,526,cs),
(115,526,o),
(37,443,o),
(33,342,c)
);
},
{
closed = 1;
nodes = (
(338,185,ls),
(338,124,o),
(296,99,o),
(252,99,cs),
(221,99,o),
(193,114,o),
(193,148,cs),
(193,178,o),
(210,194,o),
(265,206,cs),
(297,213,o),
(320,221,o),
(338,230,c)
);
}
);
width = 559;
}
);
note = a;
unicode = 97;
},
{
glyphname = b;
kernLeft = b;
kernRight = thorn;
lastChange = "2023-04-04 19:55:08 +0000";
layers = (
{
hints = (
{
horizontal = 1;
place = (-17, 144);
place = (-17, 144);
type = Stem;
},
{
horizontal = 1;
place = (389, 137);
place = (389, 137);
type = Stem;
},
{
horizontal = 1;
place = (715, -20);
target = down;
type = TopGhost;
},
{
place = (34, 189);
place = (34, 189);
type = Stem;
},
{
place = (400, 192);
place = (400, 192);
type = Stem;
},
{
horizontal = 1;
place = (0, 127);
place = (0, 127);
type = Stem;
}
);
layerId = m01;
shapes = (
{
closed = 1;
nodes = (
(34,0,l),
(214,0,l),
(214,66,l),
(216,66,l),
(250,8,o),
(310,-17,o),
(374,-17,cs),
(509,-17,o),
(592,82,o),
(592,256,cs),
(592,404,o),
(513,526,o),
(376,526,cs),
(307,526,o),
(262,502,o),
(226,457,c),
(223,457,l),
(223,715,l),
(34,715,l)
);
},
{
closed = 1;
nodes = (
(369,389,o),
(400,338,o),
(400,258,cs),
(400,178,o),
(370,127,o),
(312,127,cs),
(254,127,o),
(216,183,o),
(216,258,cs),
(216,332,o),
(254,389,o),
(312,389,cs)
);
}
);
width = 605;
}
);
note = b;
unicode = 98;
},
{
glyphname = c;
kernLeft = c;
kernRight = c;
lastChange = "2023-04-04 05:10:11 +0000";
layers = (
{
hints = (
{
horizontal = 1;
place = (-16, 133);
place = (-16, 133);
type = Stem;
},
{
horizontal = 1;
place = (393, 132);
place = (393, 132);
type = Stem;
},
{
place = (13, 192);
place = (13, 192);
type = Stem;
},
{
place = (367, 182);
place = (367, 182);
type = Stem;
}
);
layerId = m01;
shapes = (
{
closed = 1;
nodes = (
(533,440,o),
(437,525,o),
(293,525,cs),
(125,525,o),
(13,409,o),
(13,254,cs),
(13,99,o),
(125,-16,o),
(293,-16,cs),
(446,-16,o),
(549,80,o),
(549,206,c),
(367,206,l),
(362,148,o),
(339,117,o),
(293,117,cs),
(235,117,o),
(205,169,o),
(205,254,cs),
(205,340,o),
(233,393,o),
(291,393,cs),
(332,393,o),
(354,367,o),
(364,321,c),
(546,321,l)
);
}
);
width = 559;
}
);
note = c;
unicode = 99;
},
{
glyphname = d;
kernLeft = d;
lastChange = "2023-04-04 19:55:09 +0000";
layers = (
{
hints = (
{
horizontal = 1;
place = (-17, 143);
place = (-17, 143);
type = Stem;
},
{
horizontal = 1;
place = (390, 136);
place = (390, 136);
type = Stem;
},
{
horizontal = 1;
place = (715, -20);
target = down;
type = TopGhost;
},
{
place = (13, 192);
place = (13, 192);
type = Stem;
},
{
place = (386, 189);
place = (386, 189);
type = Stem;
},
{
horizontal = 1;
place = (0, 126);
place = (0, 126);
type = Stem;
}
);
layerId = m01;
shapes = (
{
closed = 1;
nodes = (
(386,456,l),
(383,456,l),
(350,499,o),
(314,526,o),
(241,526,cs),
(105,526,o),
(13,416,o),
(13,256,cs),
(13,80,o),
(111,-17,o),
(243,-17,cs),
(306,-17,o),
(360,14,o),
(393,71,c),
(395,71,l),
(395,0,l),
(575,0,l),
(575,715,l),
(386,715,l)
);
},
{
closed = 1;
nodes = (
(353,390,o),
(391,332,o),
(391,259,cs),
(391,185,o),
(353,126,o),
(297,126,cs),
(241,126,o),
(205,181,o),
(205,259,cs),
(205,337,o),
(242,390,o),
(297,390,cs)
);
}
);
width = 609;
}
);
note = d;
unicode = 100;
},
{
glyphname = e;
kernLeft = c;
kernRight = e;
lastChange = "2023-04-04 19:55:13 +0000";
layers = (
{
hints = (
{
horizontal = 1;
place = (-14, 128);
place = (-14, 128);
type = Stem;
},
{
horizontal = 1;
place = (209, 100);
place = (209, 100);
type = Stem;
},
{
horizontal = 1;
place = (400, 127);
place = (400, 127);
type = Stem;
},
{
place = (13, 549);
place = (13, 549);
type = Stem;
},
{
horizontal = 1;
place = (-14, 166);
place = (-14, 166);
type = Stem;
}
);
layerId = m01;
shapes = (
{
closed = 1;
nodes = (
(566,398,o),
(461,527,o),
(285,527,cs),
(124,527,o),
(13,410,o),
(13,256,cs),
(13,100,o),
(125,-14,o),
(292,-14,cs),
(435,-14,o),
(532,68,o),
(552,152,c),
(369,152,l),
(355,127,o),
(331,114,o),
(298,114,cs),
(241,114,o),
(209,150,o),
(198,209,c),
(562,209,l)
);
},
{
closed = 1;
nodes = (
(198,309,l),
(208,365,o),
(237,400,o),
(289,400,cs),
(334,400,o),
(366,366,o),
(374,309,c)
);
}
);
width = 575;
}
);
note = e;
unicode = 101;
},
{
glyphname = f;
kernLeft = f;
kernRight = f;
lastChange = "2023-04-04 05:31:36 +0000";
layers = (
{
hints = (
{
horizontal = 1;
place = (0, 21);
target = up;
type = BottomGhost;
},
{
horizontal = 1;
place = (396, 114);
place = (396, 114);
type = Stem;
},
{
horizontal = 1;
place = (584, 129);
place = (584, 129);
type = Stem;
},
{
place = (70, 189);
place = (70, 189);
type = Stem;
},
{
horizontal = 1;
place = (584, 125);
place = (584, 125);
type = Stem;
}
);
layerId = m01;
shapes = (
{
closed = 1;
nodes = (
(7,396,l),
(70,396,l),
(70,0,l),
(259,0,l),
(259,396,l),
(359,396,l),
(359,510,l),
(259,510,l),
(259,523,ls),
(259,574,o),
(288,583,o),
(332,584,cs),
(340,584,o),
(349,584,o),
(359,584,c),
(359,709,l),
(328,712,o),
(298,714,o),
(271,714,cs),
(152,713,o),
(70,673,o),
(70,538,cs),
(70,510,l),
(7,510,l)
);
}
);
width = 368;
}
);
note = f;
unicode = 102;
},
{
glyphname = g;
kernLeft = g;
kernRight = g;
lastChange = "2023-04-04 19:55:15 +0000";
layers = (
{
hints = (
{
horizontal = 1;
place = (-178, 169);
place = (-178, 169);
type = Stem;
},
{
horizontal = 1;
place = (25, 132);
place = (25, 132);
type = Stem;
},
{
horizontal = 1;
place = (389, 121);
place = (389, 121);
type = Stem;
},
{
place = (13, 184);
place = (13, 184);
type = Stem;
},
{
place = (369, 180);
place = (369, 180);
type = Stem;
},
{
horizontal = 1;
place = (-178, 126);
place = (-178, 126);
type = Stem;
},
{
horizontal = 1;
place = (389, 137);
place = (389, 137);
type = Stem;
}
);
layerId = m01;
shapes = (
{
closed = 1;
nodes = (
(369,454,l),
(366,454,l),
(337,498,o),
(293,526,o),
(221,526,cs),
(96,526,o),
(13,412,o),
(13,266,cs),
(13,106,o),
(114,25,o),
(230,25,cs),
(289,25,o),
(329,49,o),
(359,83,c),
(363,83,l),
(363,37,ls),
(363,-16,o),
(342,-52,o),
(281,-52,cs),
(236,-52,o),
(212,-30,o),
(205,-9,c),
(23,-9,l),
(41,-122,o),
(141,-178,o),
(284,-178,cs),
(445,-178,o),
(549,-100,o),
(549,61,cs),
(549,510,l),
(369,510,l)
);
},
{
closed = 1;
nodes = (
(339,389,o),
(371,338,o),
(371,274,cs),
(371,207,o),
(339,157,o),
(284,157,cs),
(231,157,o),
(197,206,o),
(197,274,cs),
(197,343,o),
(231,389,o),
(284,389,cs)
);
}
);
width = 583;
}
);
note = g;
unicode = 103;
},
{
glyphname = h;
kernLeft = b;
kernRight = h;
lastChange = "2023-04-04 05:36:12 +0000";
layers = (
{
hints = (
{
horizontal = 1;
place = (0, 21);
target = up;
type = BottomGhost;
},
{
horizontal = 1;
place = (372, 154);
place = (372, 154);
type = Stem;
},
{
horizontal = 1;
place = (715, -20);
target = down;
type = TopGhost;
},
{
place = (34, 189);
place = (34, 189);
type = Stem;
},
{
place = (371, 189);
place = (371, 189);
type = Stem;
}
);
layerId = m01;
shapes = (
{
closed = 1;
nodes = (
(34,0,l),
(223,0,l),
(223,275,ls),
(223,330,o),
(252,372,o),
(300,372,cs),
(349,372,o),
(371,337,o),
(371,284,cs),
(371,0,l),
(560,0,l),
(560,330,ls),
(560,447,o),
(499,526,o),
(381,526,cs),
(310,526,o),
(264,496,o),
(226,452,c),
(223,452,l),
(223,715,l),
(34,715,l)
);
}
);
width = 590;
}
);
note = h;
unicode = 104;
},
{
glyphname = i;
kernLeft = b;
layers = (
{
hints = (
{
horizontal = 1;
place = (0, 21);
target = up;
type = BottomGhost;
},
{
horizontal = 1;
place = (510, -20);
target = down;
type = TopGhost;
},
{
horizontal = 1;
place = (572, 143);
place = (572, 143);
type = Stem;
},
{
place = (34, 189);
place = (34, 189);
type = Stem;
}
);
layerId = m01;
shapes = (
{
closed = 1;
nodes = (
(34,0,l),
(223,0,l),
(223,510,l),
(34,510,l)
);
},
{
closed = 1;
nodes = (
(34,572,l),
(223,572,l),
(223,715,l),
(34,715,l)
);
}
);
width = 257;
}
);
note = i;
unicode = 105;
},
{
glyphname = j;
kernLeft = j;
kernRight = j;
lastChange = "2023-04-04 05:41:45 +0000";
layers = (
{
hints = (
{
horizontal = 1;
place = (-174, 21);
target = up;
type = BottomGhost;
},
{
horizontal = 1;
place = (510, -20);
target = down;
type = TopGhost;
},
{
horizontal = 1;
place = (572, 143);
place = (572, 143);
type = Stem;
},
{
place = (34, 189);
place = (34, 189);
type = Stem;
},
{
horizontal = 1;
place = (-174, 139);
place = (-174, 139);
type = Stem;
}
);
layerId = m01;
shapes = (
{
closed = 1;
nodes = (
(34,20,ls),
(34,-28,o),
(16,-35,o),
(-20,-36,cs),
(-30,-36,o),
(-41,-35,o),
(-53,-35,c),
(-53,-164,l),
(-24,-170,o),
(22,-174,o),
(54,-174,cs),
(176,-174,o),
(223,-108,o),
(223,13,cs),
(223,510,l),
(34,510,l)
);
},
{
closed = 1;
nodes = (
(34,572,l),
(223,572,l),
(223,715,l),
(34,715,l)
);
}
);
width = 257;
}
);
note = j;
unicode = 106;
},
{
glyphname = k;
kernLeft = b;
kernRight = k;
lastChange = "2023-04-04 05:44:40 +0000";
layers = (
{
hints = (
{
horizontal = 1;
place = (0, 21);
target = up;
type = BottomGhost;
},
{
horizontal = 1;
place = (510, -20);
target = down;
type = TopGhost;
},
{
horizontal = 1;
place = (715, -20);
target = down;
type = TopGhost;
},
{
place = (34, 186);
place = (34, 186);
type = Stem;
}
);
layerId = m01;
shapes = (
{
closed = 1;
nodes = (
(34,0,l),
(220,0,l),
(220,140,l),
(259,183,l),
(361,0,l),
(575,0,l),
(385,322,l),
(555,510,l),
(343,510,l),
(220,358,l),
(220,715,l),
(34,715,l)
);
}
);
width = 574;
}
);
note = k;
unicode = 107;
},
{
glyphname = l;
kernLeft = b;
layers = (
{
hints = (
{
horizontal = 1;
place = (0, 21);
target = up;
type = BottomGhost;
},
{
horizontal = 1;
place = (715, -20);
target = down;
type = TopGhost;
},
{
place = (34, 194);
place = (34, 194);
type = Stem;
}
);
layerId = m01;
shapes = (
{
closed = 1;
nodes = (
(34,0,l),
(228,0,l),
(228,715,l),
(34,715,l)
);
}
);
width = 262;
}
);
note = l;
unicode = 108;
},
{
glyphname = m;
kernLeft = m;
kernRight = h;
layers = (
{
hints = (
{
horizontal = 1;
place = (0, 21);
target = up;
type = BottomGhost;
},
{
horizontal = 1;
place = (372, 154);
place = (372, 154);
type = Stem;
},
{
place = (34, 189);
place = (34, 189);
type = Stem;
},
{
place = (359, 189);
place = (359, 189);
type = Stem;
},
{
place = (684, 189);
place = (684, 189);
type = Stem;
},
{
horizontal = 1;
place = (372, 138);
place = (372, 138);
type = Stem;
}
);
layerId = m01;
shapes = (
{
closed = 1;
nodes = (
(34,0,l),
(223,0,l),
(223,275,ls),
(223,330,o),
(247,372,o),
(294,372,cs),
(342,372,o),
(359,338,o),
(359,286,cs),
(359,0,l),
(548,0,l),
(548,275,ls),
(548,330,o),
(572,372,o),
(619,372,cs),
(667,372,o),
(684,338,o),
(684,286,cs),
(684,0,l),
(873,0,l),
(873,321,ls),
(873,438,o),
(819,526,o),
(694,526,cs),
(628,526,o),
(571,505,o),
(527,437,c),
(524,437,l),
(498,493,o),
(447,526,o),
(379,526,cs),
(302,526,o),
(253,493,o),
(217,434,c),
(214,434,l),
(214,510,l),
(34,510,l)
);
}
);
width = 903;
}
);
note = m;
unicode = 109;
},
{
glyphname = n;
kernLeft = m;
kernRight = h;
lastChange = "2023-04-04 05:50:47 +0000";
layers = (
{
hints = (
{
horizontal = 1;
place = (0, 21);
target = up;
type = BottomGhost;
},
{
horizontal = 1;
place = (372, 138);
place = (372, 138);
type = Stem;
},
{
place = (34, 189);
place = (34, 189);
type = Stem;
},
{
place = (371, 189);
place = (371, 189);
type = Stem;
},
{
horizontal = 1;
place = (372, 154);
place = (372, 154);
type = Stem;
}
);
layerId = m01;
shapes = (
{
closed = 1;
nodes = (
(34,0,l),
(223,0,l),
(223,275,ls),
(223,330,o),
(252,372,o),
(300,372,cs),
(349,372,o),
(371,337,o),
(371,284,cs),
(371,0,l),
(560,0,l),
(560,330,ls),
(560,447,o),
(499,526,o),
(381,526,cs),
(310,526,o),
(258,496,o),
(217,440,c),
(214,440,l),
(214,510,l),
(34,510,l)
);
}
);
width = 590;
}
);
note = n;
unicode = 110;
},
{
glyphname = o;
kernLeft = c;
kernRight = o;
lastChange = "2023-04-04 19:55:20 +0000";
layers = (
{
hints = (
{
horizontal = 1;
place = (-16, 126);
place = (-16, 126);
type = Stem;
},
{
horizontal = 1;
place = (398, 127);
place = (398, 127);
type = Stem;
},
{
place = (13, 192);
place = (13, 192);
type = Stem;
},
{
place = (379, 192);
place = (379, 192);
type = Stem;
}
);
layerId = m01;
shapes = (
{
closed = 1;
nodes = (
(123,525,o),
(13,409,o),
(13,254,cs),
(13,99,o),
(123,-16,o),
(293,-16,cs),
(463,-16,o),
(571,99,o),
(571,254,cs),
(571,409,o),
(463,525,o),
(293,525,cs)
);
},
{
closed = 1;
nodes = (
(349,398,o),
(379,340,o),
(379,254,cs),
(379,168,o),
(349,110,o),
(291,110,cs),
(233,110,o),
(205,168,o),
(205,254,cs),
(205,340,o),
(233,398,o),
(291,398,cs)
);
}
);
width = 584;
}
);
note = o;
unicode = 111;
},
{
glyphname = p;
kernLeft = p;
kernRight = thorn;
lastChange = "2023-04-04 19:55:22 +0000";
layers = (
{
hints = (
{
horizontal = 1;
place = (-169, 21);
target = up;
type = BottomGhost;
},
{
horizontal = 1;
place = (-17, 139);
place = (-17, 139);
type = Stem;
},
{
horizontal = 1;
place = (375, 151);
place = (375, 151);
type = Stem;
},
{
place = (34, 189);
place = (34, 189);
type = Stem;
},
{
place = (400, 192);
place = (400, 192);
type = Stem;
},
{
horizontal = 1;
place = (375, 135);
place = (375, 135);
type = Stem;
}
);
layerId = m01;
shapes = (
{
closed = 1;
nodes = (
(34,-169,l),
(223,-169,l),
(223,48,l),
(226,48,l),
(260,6,o),
(307,-17,o),
(368,-17,cs),
(504,-17,o),
(592,89,o),
(592,256,cs),
(592,404,o),
(513,526,o),
(376,526,cs),
(306,526,o),
(254,498,o),
(217,450,c),
(214,450,l),
(214,510,l),
(34,510,l)
);
},
{
closed = 1;
nodes = (
(368,375,o),
(400,326,o),
(400,248,cs),
(400,170,o),
(368,122,o),
(312,122,cs),
(254,122,o),
(216,174,o),
(216,248,cs),
(216,321,o),
(254,375,o),
(312,375,cs)
);
}
);
width = 605;
}
);
note = p;
unicode = 112;
},
{
glyphname = q;
kernLeft = d;
kernRight = q;
lastChange = "2023-04-04 19:55:24 +0000";
layers = (
{
hints = (
{
horizontal = 1;
place = (-169, 21);
target = up;
type = BottomGhost;
},
{
horizontal = 1;
place = (-17, 142);
place = (-17, 142);
type = Stem;
},
{
horizontal = 1;
place = (378, 148);
place = (378, 148);
type = Stem;
},
{
place = (382, 189);
place = (382, 189);
type = Stem;
},
{
horizontal = 1;
place = (378, 132);
place = (378, 132);
type = Stem;
},
{
place = (13, 192);
place = (13, 192);
type = Stem;
}
);
layerId = m01;
shapes = (
{
closed = 1;
nodes = (
(391,510,l),
(391,444,l),
(388,444,l),
(353,499,o),
(302,526,o),
(240,526,cs),
(90,526,o),
(13,404,o),
(13,256,cs),
(13,89,o),
(101,-17,o),
(235,-17,cs),
(298,-17,o),
(345,6,o),
(379,50,c),
(382,50,l),
(382,-169,l),
(571,-169,l),
(571,510,l)
);
},
{
closed = 1;
nodes = (
(351,378,o),
(389,324,o),
(389,251,cs),
(389,177,o),
(351,125,o),
(293,125,cs),
(237,125,o),
(205,173,o),
(205,251,cs),
(205,329,o),
(237,378,o),
(293,378,cs)
);
}
);
width = 605;
}
);
note = q;
unicode = 113;
},
{
glyphname = r;
kernLeft = m;
kernRight = r;
lastChange = "2023-04-04 06:03:20 +0000";
layers = (
{
hints = (
{
horizontal = 1;
place = (0, 21);
target = up;
type = BottomGhost;
},
{
horizontal = 1;
place = (359, 151);
place = (359, 151);
type = Stem;
},
{
place = (34, 189);
place = (34, 189);
type = Stem;
},
{
horizontal = 1;
place = (516, -20);
target = down;
type = TopGhost;
},
{
horizontal = 1;
place = (359, 162);
place = (359, 162);
type = Stem;
}
);
layerId = m01;
shapes = (
{
closed = 1;
nodes = (
(34,0,l),
(223,0,l),
(223,209,ls),
(223,308,o),
(271,359,o),
(355,359,cs),
(369,359,o),
(383,358,o),
(403,355,c),
(403,516,l),
(397,519,o),
(387,521,o),
(372,521,cs),
(307,521,o),
(258,497,o),
(217,433,c),
(214,433,l),
(214,510,l),
(34,510,l)
);
}
);
width = 414;
}
);
note = r;
unicode = 114;
},
{
glyphname = s;
kernLeft = scaron;
kernRight = scaron;
lastChange = "2023-04-04 06:05:12 +0000";
layers = (
{
hints = (
{
horizontal = 1;
place = (-17, 115);
place = (-17, 115);
type = Stem;
},
{
horizontal = 1;
place = (368, 158);
place = (368, 158);
type = Stem;
},
{
place = (17, 179);
place = (17, 179);
type = Stem;
},
{
place = (327, 185);
place = (327, 185);
type = Stem;
},
{
horizontal = 1;
place = (414, 112);
place = (414, 112);
type = Stem;
},
{
horizontal = 1;
place = (-17, 182);
place = (-17, 182);
type = Stem;
}
);
layerId = m01;
shapes = (
{
closed = 1;
nodes = (
(485,468,o),
(404,526,o),
(249,526,cs),
(124,526,o),
(17,468,o),
(17,363,cs),
(17,235,o),
(116,212,o),
(202,199,cs),
(268,189,o),
(327,184,o),
(327,142,cs),
(327,111,o),
(299,98,o),
(262,98,cs),
(214,98,o),
(188,123,o),
(185,165,c),
(4,165,l),
(5,48,o),
(110,-17,o),
(261,-17,cs),
(401,-17,o),
(512,36,o),
(512,158,cs),
(512,300,o),
(394,321,o),
(301,334,cs),
(243,342,o),
(196,348,o),
(196,377,cs),
(196,403,o),
(222,414,o),
(250,414,cs),
(281,414,o),
(309,406,o),
(314,368,c),
(492,368,l)
);
}
);
width = 523;
}
);
note = s;
unicode = 115;
},
{
glyphname = t;
kernLeft = t;
kernRight = t;
lastChange = "2023-04-04 06:05:36 +0000";
layers = (
{
hints = (
{
horizontal = 1;
place = (-10, 151);
place = (-10, 151);
type = Stem;
},
{
horizontal = 1;
place = (396, 114);
place = (396, 114);
type = Stem;
},
{
place = (73, 185);
place = (73, 185);
type = Stem;
}
);
layerId = m01;
shapes = (
{
closed = 1;
nodes = (
(7,396,l),
(73,396,l),
(73,147,ls),
(73,25,o),
(136,-10,o),
(260,-10,cs),
(294,-10,o),
(324,-5,o),
(353,2,c),
(353,141,l),
(342,140,o),
(333,140,o),
(324,140,cs),
(282,139,o),
(258,147,o),
(258,189,cs),
(258,396,l),
(355,396,l),
(355,510,l),
(258,510,l),
(258,675,l),
(73,675,l),
(73,510,l),
(7,510,l)
);
}
);
width = 370;
}
);
note = t;
unicode = 116;
},
{
glyphname = u;
kernLeft = u;
kernRight = u;
lastChange = "2023-04-04 06:08:06 +0000";
layers = (
{
hints = (
{
horizontal = 1;
place = (0, 145);
place = (0, 145);
type = Stem;
},
{
horizontal = 1;
place = (510, -20);
target = down;
type = TopGhost;
},
{
place = (30, 189);
place = (30, 189);
type = Stem;
},
{
place = (365, 189);
place = (365, 189);
type = Stem;
},
{
horizontal = 1;
place = (-16, 161);
place = (-16, 161);
type = Stem;
}
);
layerId = m01;
shapes = (
{
closed = 1;
nodes = (
(30,181,ls),
(30,64,o),
(90,-16,o),
(212,-16,cs),
(282,-16,o),
(332,13,o),
(371,66,c),
(374,66,l),
(374,0,l),
(554,0,l),
(554,510,l),
(365,510,l),
(365,235,ls),
(365,180,o),
(336,145,o),
(287,145,cs),
(242,145,o),
(219,173,o),
(219,226,cs),
(219,510,l),
(30,510,l)
);
}
);
width = 588;
}
);
note = u;
unicode = 117;
},
{
glyphname = v;
kernLeft = v;
kernRight = v;
lastChange = "2023-04-04 06:09:54 +0000";
layers = (
{
hints = (
{
horizontal = 1;
place = (0, 21);
target = up;
type = BottomGhost;
},
{
horizontal = 1;
place = (510, -20);
target = down;
type = TopGhost;
},
{
place = (-7, 571);
place = (-7, 571);
type = Stem;
}
);
layerId = m01;
shapes = (
{
closed = 1;
nodes = (
(168,0,l),
(389,0,l),
(564,510,l),
(374,510,l),
(281,191,l),
(281,191,l),
(189,510,l),
(-7,510,l)
);
}
);
width = 557;
}
);
note = v;
unicode = 118;
},
{
glyphname = w;
kernLeft = w;
kernRight = w;
lastChange = "2023-04-04 06:10:20 +0000";
layers = (
{
hints = (
{
horizontal = 1;
place = (0, 21);
target = up;
type = BottomGhost;
},
{
horizontal = 1;
place = (510, -20);
target = down;
type = TopGhost;
},
{
place = (-7, 834);
place = (-7, 834);
type = Stem;
}
);
layerId = m01;
shapes = (
{
closed = 1;
nodes = (
(156,0,l),
(335,0,l),
(409,307,l),
(409,307,l),
(483,0,l),
(665,0,l),
(827,510,l),
(636,510,l),
(561,221,l),
(561,221,l),
(492,510,l),
(332,510,l),
(263,223,l),
(263,223,l),
(188,510,l),
(-7,510,l)
);
}
);
width = 820;
}
);
note = w;
unicode = 119;
},
{
glyphname = x;
kernLeft = x;
kernRight = x;
lastChange = "2023-04-04 06:14:25 +0000";
layers = (
{
hints = (
{
horizontal = 1;
place = (0, 21);
target = up;
type = BottomGhost;
},
{
horizontal = 1;
place = (510, -20);
target = down;
type = TopGhost;
},
{
place = (6, 573);
place = (6, 573);
type = Stem;
}
);
layerId = m01;
shapes = (
{
closed = 1;
nodes = (
(175,265,l),
(6,0,l),
(212,0,l),
(289,136,l),
(289,136,l),
(362,0,l),
(579,0,l),
(413,269,l),
(559,510,l),
(358,510,l),
(298,394,l),
(298,394,l),
(237,510,l),
(20,510,l)
);
}
);
width = 585;
}
);
note = x;
unicode = 120;
},
{
glyphname = y;
kernLeft = yacute;
kernRight = yacute;
lastChange = "2023-04-04 06:17:25 +0000";
layers = (
{
hints = (
{
horizontal = 1;
place = (-169, 146);
place = (-169, 146);
type = Stem;
},
{
horizontal = 1;
place = (510, -20);
target = down;
type = TopGhost;
},
{
place = (-7, 575);
place = (-7, 575);
type = Stem;
}
);
layerId = m01;
shapes = (
{
closed = 1;
nodes = (
(156,88,ls),
(168,58,o),
(179,31,o),
(179,15,cs),
(179,-12,o),
(162,-23,o),
(120,-23,cs),
(99,-23,o),
(78,-23,o),
(57,-23,c),
(57,-169,l),
(101,-169,o),
(144,-169,o),
(188,-169,cs),
(291,-169,o),
(351,-126,o),
(394,0,cs),
(568,510,l),
(380,510,l),
(286,181,l),
(286,181,l),
(192,510,l),
(-7,510,l)
);
}
);
width = 561;
}
);
note = y;
unicode = 121;
},
